<?xml version="1.0" standalone="no"?><!DOCTYPE svg PUBLIC "-//W3C//DTD SVG 1.1//EN" "http://www.w3.org/Graphics/SVG/1.1/DTD/svg11.dtd" ><svg xmlns="http://www.w3.org/2000/svg"><metadata></metadata><defs><font id="theme-font" horiz-adv-x="9568"><font-face font-family="theme-font" font-weight="400" font-stretch="normal" units-per-em="5000" panose-1="2 0 5 3 0 0 0 0 0 0" ascent="5000" descent="0" x-height="0" bbox="-87 -24 9569 5032" underline-thickness="0" underline-position="50" unicode-range="U+ea01-ea17" /><missing-glyph horiz-adv-x="0"  /><glyph glyph-name="arrow-bottom" unicode="&#xea01;" d="M3750 1272 q-27 33 -65 52 q-38 19 -80 22.5 q-42 3.5 -82.5 -9.5 q-40.5 -13 -72.5 -40 l-738 -628 l0 4120 q-1 57 -29 105.5 q-28 48.5 -77 77 q-49 28.5 -106 28.5 q-57 0 -106 -28.5 q-49 -28.5 -77 -77 q-28 -48.5 -28 -106.5 l0 -4120 l-739 629 q-43 38 -99.5 49 q-56.5 11 -111 -7.5 q-54.5 -18.5 -92 -62.5 q-37.5 -44 -47 -101 q-9.5 -57 11 -111 q20.5 -54 65.5 -90 l1086 -924 l16 -12 l17 -10 l25 -12 l19 -7 l10 -2 l97 0 l10 2 l9 3 l18 7 l17 9 l17 10 l16 12 l1092 924 q32 27 51.5 64.5 q19.5 37.5 22.5 79.5 q3 42 -10 82 q-13 40 -40 72 Z" /><glyph glyph-name="arrow-left" unicode="&#xea02;" d="M2426 102 q84 71 121 175 q35 101 17 207 q-19 108 -90 193 l0 0 l-1208 1419 l7900 0 q109 0 203 55 q91 53 145 144 q55 94 55 203.5 q0 109.5 -55 203.5 q-54 91 -145 144 q-94 55 -203 55 l-7900 0 l1208 1419 q77 81 102.5 189 q25.5 108 -7.5 214.5 q-33 106.5 -115.5 181.5 q-82.5 75 -192 97 q-109.5 22 -214.5 -14 q-105 -36 -177 -121 q0 -5 -5 -10 q-5 -5 -5 -9 l-1776 -2091 l-9 -9 l-67 -134 l-8 0 l0 -230 l77 -154 l9 -9 l-2 0 l1765 -2081 q73 -83 177 -118 q101 -34 206 -14 q108 21 192 94 l2 0 Z" /><glyph glyph-name="arrow-right" unicode="&#xea03;" d="M7143 4899 q-84 -71 -121 -175 q-35 -101 -17 -207 q19 -108 90 -193 l1208 -1419 l-7900 0 q-110 0 -204 -55 q-91 -53 -144 -144 q-55 -94 -55 -203.5 q0 -109.5 55 -203.5 q53 -91 144 -144 q94 -55 204 -55 l7900 0 l-1208 -1419 q-77 -81 -103 -189 q-26 -108 7 -214.5 q33 -106.5 116 -181.5 q83 -75 192 -97 q109 -22 214.5 14 q105.5 36 177.5 121 q0 5 5 10 q5 5 5 9 l1771 2091 l10 9 l67 134 l10 0 l0 230 l-77 154 l-10 8 l-1764 2080 q-73 83 -177 118 q-102 34 -207 14 q-108 -21 -191 -94 l2 2 Z" /><glyph glyph-name="arrow-top" unicode="&#xea04;" d="M1250 3735 q37 -44 90.5 -62.5 q53.5 -18.5 109.5 -9 q56 9.5 100 46.5 q0 0 0 0 l740 630 l0 -4120 q0 -57 28.5 -105 q28.5 -48 76.5 -76.5 q48 -28.5 105 -28.5 q57 0 105 28.5 q48 28.5 76.5 76.5 q28.5 48 28.5 105 l0 4120 l740 -630 q42 -39 98 -51 q54 -11 108 6.5 q54 17.5 93.5 59.5 q39.5 42 51.5 98 q11 54 -6.5 108 q-17.5 54 -59.5 94 q-2 0 -4.5 2.5 q-2.5 2.5 -5.5 2.5 l-1090 925 l-5 5 l-70 35 l0 5 l-120 0 l-80 -40 l-5 -5 l-1085 -920 q-42 -37 -60.5 -90.5 q-18.5 -53.5 -8.5 -108.5 q10 -57 49 -101 q0 0 0 0 Z" /><glyph glyph-name="close" unicode="&#xea05;" d="M4660 4340 l-320 320 l-1840 -1840 l-1840 1840 l-320 -320 l1840 -1840 l-1840 -1840 l320 -320 l1840 1840 l1840 -1840 l320 320 l-1840 1840 l1840 1840 Z" /><glyph glyph-name="contact" unicode="&#xea06;" d="M5000 3819 q0 139 -54 265 q-52 122 -146 216.5 q-94 94.5 -217 146.5 q-126 53 -265 53 l-3636 0 q-139 0 -265 -53 q-123 -52 -217 -146.5 q-94 -94.5 -146 -216.5 q-54 -126 -54 -265 l0 -2736 q0 -136 52 -261.5 q52 -125.5 148 -221.5 q96 -96 221 -148 q125 -52 261 -52 l3636 0 q136 0 261 52 q125 52 221 148 q96 96 148 221.5 q52 125.5 52 261.5 l0 2736 ZM682 4050 l3636 0 q65 -2 118.5 -37.5 q53.5 -35.5 81.5 -93.5 l-2018 -1416 l-2019 1417 q27 58 81.5 93.5 q54.5 35.5 119.5 36.5 ZM4318 850 l-3636 0 q-63 2 -116 34 q-53 32 -84 86 q-31 54 -32 117 l0 2291 l1918 -1341 q59 -41 131.5 -41 q72.5 0 132.5 41 l1918 1341 l0 -2291 q-1 -63 -32 -117 q-31 -54 -84 -86 q-53 -32 -116 -34 Z" /><glyph glyph-name="fi_carte-bleue" unicode="&#xea07;" d="M4767 3236 l-660 0 l0 1168 q0 63 -31.5 116.5 q-31.5 53.5 -85 85 q-53.5 31.5 -116.5 31.5 l-3640 0 q-64 0 -117.5 -31.5 q-53.5 -31.5 -85 -85 q-31.5 -53.5 -31.5 -117.5 l0 -2326 q0 -64 31.5 -117.5 q31.5 -53.5 85 -85 q53.5 -31.5 116.5 -31.5 l660 0 l0 -1168 q0 -47 18 -90 q18 -43 51 -75.5 q33 -32.5 76 -50.5 q43 -18 89 -18 l3640 0 q63 0 116.5 31.5 q53.5 31.5 85 85 q31.5 53.5 31.5 116.5 l0 2326 q0 47 -17.5 90 q-17.5 43 -50.5 76.5 q-33 33.5 -76 51.5 q-43 18 -90 18 l1 0 ZM3640 4170 l0 -235 l-3173 0 l0 235 l3173 0 ZM467 2310 l0 1158 l3173 0 l0 -232 l-2513 0 q-47 0 -90 -18 q-43 -18 -76 -51.5 q-33 -33.5 -50.5 -76.5 q-17.5 -43 -17.5 -90 l0 -690 l-426 0 ZM4534 910 l-3174 0 l0 1859 l3173 0 l1 -1859 ZM1534 2163 l0 210 q0 46 17.5 89 q17.5 43 50.5 75.5 q33 32.5 76 50.5 q43 18 89 18 l210 0 q63 0 117 -31.5 q54 -31.5 85.5 -85 q31.5 -53.5 31.5 -116.5 l0 -210 q0 -64 -31.5 -117.5 q-31.5 -53.5 -85.5 -85 q-54 -31.5 -117 -31.5 l-210 0 q-46 0 -89.5 17 q-43.5 17 -76.5 50 q-33 33 -51 75.5 q-18 42.5 -18 89.5 l2 2 Z" /><glyph glyph-name="fi_cheques-bancaires-et-postaux" unicode="&#xea08;" d="M1107 2300 q-43 -3 -77 23.5 q-34 26.5 -40 69.5 q-114 20 -214 81 q-19 14 -31.5 35 q-12.5 21 -15.5 45 q-1 22 6 42 q7 20 22 37 l8 10 q26 29 64 34.5 q38 5.5 71 -15.5 q41 -25 88 -39 l0 250 q-71 18 -126 65 q-55 47 -84.5 113 q-29.5 66 -26.5 139 q-3 75 26 142.5 q29 67.5 84 117 q55 49.5 127 69.5 q2 42 33 71 q31 29 73 29 q44 4 78 -24.5 q34 -28.5 39 -72.5 q79 -17 150 -58 q38 -25 50 -69 q5 -20 2.5 -41 q-2.5 -21 -13.5 -40 l-11 -14 q-25 -32 -65 -39 q-40 -7 -74 14 l-35 16 l0 -233 q136 -40 198 -137 q49 -75 49 -180 q4 -78 -26.5 -149 q-30.5 -71 -88.5 -121.5 q-58 -50.5 -134 -70.5 q-2 -42 -33 -71.5 q-31 -29.5 -74 -28.5 l1 0 ZM825 2571 l0 0 ZM1213 2811 l0 -155 q23 37 21 81 q3 20 -2.5 39.5 q-5.5 19.5 -18.5 34.5 ZM990 3250 q-11 -27 -10 -55 q-1 -30 9 -57 l1 112 ZM1330 3441 l8 -4 l-8 4 ZM4121 2980 l0 482 q0 37 -14.5 71 q-14.5 34 -40.5 60 q-26 26 -60 40 q-34 14 -70 14 l-1367 0 q-50 0 -92.5 -25 q-42.5 -25 -67.5 -67.5 q-25 -42.5 -25 -92.5 l0 -482 q0 -37 14 -71 q14 -34 40 -60 q26 -26 60 -40.5 q34 -14.5 71 -14.5 l1366 0 q37 0 71 14.5 q34 14.5 60 40.5 q26 26 40.5 60 q14.5 34 14.5 70 l0 1 ZM3750 3165 l-996 0 l0 112 l996 0 l0 -112 ZM4946 1139 l-540 541 q49 1 90 26 q41 25 65 66.5 q24 41.5 24 90.5 l0 2081 q0 50 -25 92.5 q-25 42.5 -67.5 67 q-42.5 24.5 -92.5 24.5 l-4215 0 q-50 1 -92.5 -24 q-42.5 -25 -67.5 -67.5 q-25 -42.5 -25 -93.5 l0 -2080 q0 -50 25 -92.5 q25 -42.5 67.5 -67.5 q42.5 -25 92.5 -25 l3700 0 l800 -800 q36 -34 83 -45 q47 -11 93.5 1.5 q46.5 12.5 81 47.5 q34.5 35 47.5 81.5 q13 46.5 1.5 93.5 q-11.5 47 -45.5 83 l0 -1 ZM370 2050 l0 1709 l3845 0 l0 -1709 l-178 0 l-327 325 q-37 34 -86 45 l-274 135 l-17 -18 q-25 23 -55 35 q-9 2 -17.5 -1 q-8.5 -3 -14.5 -9 q-6 -6 -9 -14.5 q-3 -8.5 -1 -17.5 q13 -30 37 -53 l-11 -10 l141 -275 q13 -46 47 -79 l65 -65 l-3145 2 Z" /><glyph glyph-name="fi_cheques-vacances" unicode="&#xea09;" d="M4797 1000 l-4594 0 q-41 0 -78 15.5 q-37 15.5 -66 44.5 q-29 29 -44 66.5 q-15 37.5 -15 78.5 l0 2470 q0 55 27.5 101.5 q27.5 46.5 74 73.5 q46.5 27 101.5 27 l4594 0 q55 0 101.5 -27 q46.5 -27 74 -73.5 q27.5 -46.5 27.5 -102.5 l0 -2469 q0 -41 -15 -78.5 q-15 -37.5 -44 -66.5 q-29 -29 -66 -44.5 q-37 -15.5 -78 -15.5 ZM407 1408 l4187 0 l0 2064 l-4187 0 l0 -2064 ZM2650 2421 q37 30 85 29 l79 0 l0 8 l-90 29 q-25 5 -46 18 q-44 34 -96.5 50 q-52.5 16 -107.5 12 l-24 0 l0 7 q161 198 381 319 q207 113 469 161 q-16 1 -33 0 q-193 -3 -377 -61 q-171 -50 -319 -148 q-148 -98 -260 -235 q-8 -14 -20.5 -23.5 q-12.5 -9.5 -28 -12 q-15.5 -2.5 -30 2 q-14.5 4.5 -26.5 14.5 q-56 35 -91 90 l-42 62 q-92 133 -135 202 q-45 70 -112.5 119 q-67.5 49 -148.5 70 q-185 52 -377 69 q-260 24 -521 21 l-36 0 q20 -24 48 -39 q28 -15 59 -19 q257 -49 497 -153 q185 -80 335 -213 q79 -70 134.5 -159 q55.5 -89 83.5 -191 q7 -26 0 -39.5 q-7 -13.5 -31 -25.5 l-40 -19 q-104 -47 -155 -74 q-37 -18 -107 -63 l-20 -13 q-4 -3 -7 -10 q-3 -7 -1 -10 q8 -10 21 -13 q9 -1 19 0 q131 23 263 19 l118 -3 q127 -4 189 -5 q85 -2 166 21 q81 23 152 70 q85 60 183 135 l0 1 ZM2794 1755 l-13 -6 l-7 0 l0 7 q35 167 64 293 q6 20 -3 39.5 q-9 19.5 -29 28.5 q-50 24 -105.5 27 q-55.5 3 -107.5 -17 q-71 -26 -123 -78.5 q-52 -52.5 -76.5 -122.5 q-24.5 -70 -16.5 -145 q2 -33 17 -62 q15 -29 41 -50 q22 -19 49.5 -28.5 q27.5 -9.5 57.5 -9.5 l18 0 q54 5 100 35 q21 -23 51.5 -30.5 q30.5 -7.5 60.5 2.5 q26 5 42 25.5 q16 20.5 16 46.5 q0 12 4 18 l14 51 l-54 -24 ZM2703 2030 l-9 -36 l0 -2 q-27 -121 -45 -180 q-6 -27 -26.5 -46 q-20.5 -19 -48.5 -23 q-23 -6 -42.5 7 q-19.5 13 -21.5 36 q-3 15 -3 30 l0 11 q3 62 37 113.5 q34 51.5 89 79.5 q34 17 71 11 l-1 -1 ZM3274 1748 q0 2 0 4 l23 111 q14 64 20 96 q11 41 -2.5 82 q-13.5 41 -48.5 68 q-30 19 -66 27 q-36 8 -72 2 q-52 -2 -97.5 -25.5 q-45.5 -23.5 -77 -64 q-31.5 -40.5 -42.5 -90.5 q-14 -54 -36 -157 l-13 -60 q-4 -18 -9 -47 l-12 -59 l100 0 q13 2 23 10 q10 8 13.5 20 q3.5 12 8.5 35 l24 113 q17 74 32 124 q6 36 32 60 q26 24 61 28 q23 4 44 -8 q10 -13 9.5 -30 q-0.5 -17 -4.5 -34 l-18 -84 q-8 -35 -22 -107 q-7 -27 -6 -55 q4 -35 32 -57 q26 -20 58 -18 l16 0 q37 4 54.5 14 q17.5 10 24.5 31 q5 16 6 52 l0 38 l-44 -17 l-11 -2 ZM4183 2134 q-25 0 -50 0 q-12 -1 -22 -7 q-10 -6 -16 -16 q-50 -85 -97 -172 l-48 -89 l0 16 l-3 21 q-17 140 -26 210 q-2 14 -11 24 q-9 10 -23 13 l-103 0 l74 -496 l31 0 q3 0 6 -1 q11 0 22 1 q27 2 49.5 18 q22.5 16 33.5 41 q35 66 112 196 l50 88 l88 153 l-67 0 ZM3573 2018 q25 17 56 11 q21 -9 28 -30 l8 -19 l114 20 l-3 24 q-5 40 -32.5 70.5 q-27.5 30.5 -67.5 39.5 q-53 13 -106.5 1 q-53.5 -12 -96.5 -46 q-70 -55 -104 -136 q-34 -81 -24 -168 q2 -49 31 -88 q29 -39 76 -54 q44 -16 90 -17 q79 2 146 41 q16 8 20.5 25 q4.5 17 9.5 46 l9 65 l-45 -20 q-5 -2 -10 -5 q-50 -32 -110 -38 q-36 -6 -66 16 q-23 23 -22 55 q1 68 32 128 q19 51 67 79 Z" /><glyph glyph-name="fi_especes" unicode="&#xea0a;" d="M5000 2475 q0 11 0 22 l0 1514 q0 171 -133 308 q-122 126 -349 215 q-211 82 -492 125 q-267 41 -561.5 41 q-294.5 0 -561.5 -41 q-281 -43 -491 -125 q-227 -89 -349 -215 q-132 -137 -132 -308 q0 -46 10 -91 l0 -314 q-236 67 -481 57 q-239 -10 -464 -93 q-225 -83 -414 -229 q-193 -151 -330 -354.5 q-137 -203.5 -204 -439.5 q-65 -230 -56.5 -469.5 q8.5 -239.5 88.5 -465.5 q83 -230 233.5 -424 q150.5 -194 354.5 -331 q198 -133 428 -200 q230 -67 469 -61 q245 7 477 90 q57 -69 131 -120 q129 -90 329 -156 q198 -64 444 -99 q249 -34 523 -34 q294 0 560 40 q281 43 491 125 q226 89 348 214 q132 137 132 308 q-2 12 -5 24 l1 12 l4 1475 ZM4487 2529 q-35 -32 -116 -66 q-90 -38 -213 -68 q-140 -35 -304 -54 q-185 -22 -387 -22 q-210 2 -417 31 q-18 131 -59 257 q237 -30 476 -31 q283 1 542 39 q270 39 479 116 l-1 -202 ZM3037 1835 q215 -26 432 -27 q283 0 541 38 q271 40 479 117 l0 -204 q-35 -31 -115 -65 q-90 -38 -213 -69 q-141 -34 -306 -53 q-187 -22 -390 -22 q-252 0 -501 39 q46 120 71 247 l2 -1 ZM3466 4185 q233 0 443 -29 q181 -25 328 -68 q127 -37 203 -80 q-76 -43 -203 -80 q-147 -44 -328 -68 q-210 -29 -443 -29 q-233 0 -443 29 q-181 25 -328 68 q-127 37 -203 80 q74 44 202 82 q146 44 327 69 q210 29 444 29 l1 -3 ZM2450 3372 l0 103 q208 -74 476 -113 q259 -37 537 -37 q280 0 540 38 q275 40 483 117 l0 -184 q-36 -32 -116 -66 q-91 -38 -213 -68 q-141 -35 -304 -54 q-186 -22 -388 -22 q-419 -6 -820 114 l-16 0 q-83 85 -179 157 l0 15 ZM511 2130 q-1 212 84 407 q83 191 234 335 q153 146 353 219 q200 73 412 61 q208 -13 394 -105 q191 -95 328 -257.5 q137 -162.5 198 -365.5 q59 -200 36 -407 q-23 -211 -129 -396 q-4 -7 -13 -20 l-10 -15 q-18 -21 -31 -45 q-127 -181 -316 -293 q-186 -109 -400 -135 q-218 -26 -428 41 q-210 67 -374 214 q-160 144 -249 340 q-90 201 -90 422 l1 0 ZM2515 955 q91 76 169 166 q386 -86 781 -84 q284 0 543 39 q271 40 480 116 l0 -195 q-35 -32 -116 -66 q-90 -38 -213 -68 q-141 -35 -304 -54 q-186 -22 -388 -22 q-211 0 -407 25 q-177 22 -323 61 q-135 37 -222 82 ZM1688 2254 l0 322 q11 -5 36 -16 l13 -7 q32 -19 68 -21.5 q36 -2.5 69 12 q33 14.5 56 44.5 l17 22 q16 25 21.5 54.5 q5.5 29.5 -2 58.5 q-7.5 29 -25.5 53.5 q-18 24.5 -43 40.5 q-99 58 -211 83 q-4 40 -27.5 71.5 q-23.5 31.5 -59 48 q-35.5 16.5 -74.5 13.5 q-39 0 -72 -18 q-33 -18 -53 -50 q-20 -32 -22 -71 q-99 -28 -176 -96 q-75 -67 -115 -160 q-40 -94 -35 -198 q-5 -101 36 -194 q39 -91 115 -155 q76 -66 175 -91 l0 -347 q-64 20 -120 55 q-30 20 -65 23.5 q-35 3.5 -68 -9.5 q-33 -13 -56 -40 l-12 -15 q-21 -22 -30.5 -50 q-9.5 -28 -7.5 -58 q5 -33 21.5 -61.5 q16.5 -28.5 43.5 -47.5 q137 -84 295 -111 q6 -39 29 -69.5 q23 -30.5 58 -46 q35 -15.5 74 -12.5 q39 0 72 18 q33 18 53 50 q20 32 22 71 q103 28 184 98 q79 69 120 165 q42 99 37 206 q0 144 -66 247 q-86 133 -275 188 ZM1379 2364 q-15 39 -13 80 q-1 40 13 77 l0 -157 ZM1688 1700 l0 214 q17 -22 24.5 -49 q7.5 -27 3.5 -54 q3 -60 -29 -111 l1 0 Z" /><glyph glyph-name="fi_filters" unicode="&#xea0b;" d="M2500 1203 q-70 0 -127 41 l-2281 1625 q-43 31 -67.5 78 q-24.5 47 -24.5 100 q0 53 24.5 100.5 q24.5 47.5 67.5 78.5 l2281 1624 q57 41 127 41 q70 0 127 -41 l2281 -1624 q43 -31 67.5 -78.5 q24.5 -47.5 24.5 -100.5 q0 -53 -24.5 -100 q-24.5 -47 -67.5 -78 l-2281 -1625 q-57 -41 -127 -41 ZM596 3047 l1904 -1356 l1904 1356 l-1904 1356 l-1904 -1356 ZM2500 110 q-70 -1 -127 40 l-2281 1625 q-46 35 -68 87.5 q-22 52.5 -16.5 109.5 q5.5 57 39.5 104 q34 47 85.5 71 q51.5 24 108.5 20.5 q57 -3.5 105 -36.5 l2154 -1534 l2155 1534 q48 32 105 36 q57 4 108.5 -20 q51.5 -24 85 -71.5 q33.5 -47.5 39.5 -104 q6 -56.5 -16 -109 q-22 -52.5 -69 -88.5 l-2281 -1624 q-57 -41 -127 -41 l0 1 Z" /><glyph glyph-name="fi_modelist" unicode="&#xea0c;" d="M0 5000 l1463 0 l0 -1462 l-1463 0 l0 1462 ZM1769 5000 l1463 0 l0 -1462 l-1463 0 l0 1462 ZM3538 5000 l1462 0 l0 -1462 l-1462 0 l0 1462 ZM0 3231 l1463 0 l0 -1462 l-1463 0 l0 1462 ZM1769 3231 l1463 0 l0 -1462 l-1463 0 l0 1462 ZM3538 3231 l1462 0 l0 -1462 l-1462 0 l0 1462 ZM0 1463 l1463 0 l0 -1463 l-1463 0 l0 1463 ZM1769 1463 l1463 0 l0 -1463 l-1463 0 l0 1463 ZM3538 1463 l1462 0 l0 -1463 l-1462 0 l0 1463 Z" /><glyph glyph-name="fi_modemap" unicode="&#xea0d;" d="M1587 2887 q0 -182 70 -349 q68 -160 192 -284 q124 -124 284 -192 q167 -70 349 -70 q182 0 349 70 q160 68 284 192 q124 124 192 284 q71 167 71 349 q0 182 -71 349 q-68 160 -192 284 q-124 124 -284 192 q-167 70 -349 70.5 q-182 0.5 -349 -70.5 q-160 -68 -284 -192 q-124 -124 -192 -284 q-70 -167 -70 -349 ZM2484 5000 l-72 0 q-377 -12 -725 -153 q-339 -137 -612.5 -380.5 q-273.5 -243.5 -448.5 -563.5 q-180 -330 -236 -703 q-56 -373 20 -741 q74 -357 264.5 -670 q190.5 -313 473.5 -543 q292 -237 649 -359 l685 -887 l685 887 q361 124 654 364 q286 234 475.5 552 q189.5 318 260.5 680 q72 373 9.5 749.5 q-62.5 376.5 -251.5 706.5 q-184 320 -466 559.5 q-282 239.5 -628 368.5 q-356 133 -737 133 ZM3054 1216 l-100 -34 l-472 -613 l-474 614 l-100 34 q-256 89 -473 250 q-213 158 -371 371.5 q-158 213.5 -247 462.5 q-90 256 -100 527 q-9 287 72 560 q78 265 235 493 q154 226 369 394 q218 171 476 267 q267 98 555 108 l60 0 q318 -1 614 -113 q287 -108 522 -308 q235 -200 388 -467 q157 -275 209.5 -588.5 q52.5 -313.5 -7.5 -624.5 q-59 -302 -216.5 -567 q-157.5 -265 -394.5 -461 q-244 -201 -545 -305 Z" /><glyph glyph-name="fi_modemixted" unicode="&#xea0e;" d="M0 5000 l1463 0 l0 -1462 l-1463 0 l0 1462 ZM1769 5000 l1463 0 l0 -1462 l-1463 0 l0 1462 ZM4269 4269 l-731 -731 l0 1462 l1462 0 l-731 -731 ZM0 3231 l1463 0 l0 -1462 l-1463 0 l0 1462 ZM2500 2500 l-731 -731 l0 1462 l1463 0 l-732 -731 ZM732 731 l-732 -731 l0 1463 l1463 0 l-731 -732 ZM3006 1828 q176 0 336 71 q157 71 273 198 q118 130 172.5 297.5 q54.5 167.5 35.5 342.5 q-18 171 -104 320 q-87 152 -230 256 l-1146 -1147 q76 -106 181 -182 q105 -76 228 -116 q123 -40 253 -40 l1 0 ZM4285 4108 l-225 -224 q220 -189 360 -441 q139 -248 185 -528 q47 -285 -7.5 -568.5 q-54.5 -283.5 -202.5 -531.5 q-147 -243 -367 -423 q-224 -182 -497 -276 l-90 -31 l-435 -563 l-435 563 l-90 31 q-206 71 -385.5 194.5 q-179.5 123.5 -320.5 289.5 l-225 -229 q167 -191 377.5 -332.5 q210.5 -141.5 449.5 -224.5 l629 -814 l628 815 q325 111 591 327 q263 213 439 502 q177 293 243.5 630 q66.5 337 13.5 676 q-52 334 -214 631 q-165 301 -423 527 l1 0 Z" /><glyph glyph-name="fi_open" unicode="&#xea0f;" d="M2500 5000 q-407 0 -790 -127 q-370 -124 -686 -355 q-313 -229 -542 -542 q-231 -316 -355 -686 q-127 -383 -127 -790 q0 -407 127 -790 q124 -370 355 -686 q229 -313 542 -542 q316 -231 686 -355 q383 -127 790 -127 q407 0 790 127 q370 124 686 355 q313 229 542 542 q231 316 355 686 q127 383 127 790 q0 407 -127 790 q-124 370 -355 686 q-229 313 -542 542 q-316 231 -686 355 q-383 127 -790 127 ZM3431 1567 l-50 -50 q-33 -32 -72 -48 q-39 -16 -74.5 -12.5 q-35.5 3.5 -58.5 26.5 l-855 854 q-18 19 -24.5 44.5 q-6.5 25.5 -0.5 50.5 q-1 11 -1 22 l0 1828 q-1 48 21 89 q22 41 61 66.5 q39 25.5 87 27.5 l72 0 q46 -4 84.5 -29 q38.5 -25 60 -66 q21.5 -41 19.5 -88 l0 -1750 l765 -760 q23 -24 26.5 -59.5 q3.5 -35.5 -12.5 -74.5 q-16 -39 -48 -71 Z" /><glyph glyph-name="fi_paypal" unicode="&#xea10;" d="M8065 3532 q-36 -95 -49 -209 q-34 -202 -97 -605 q-74 -464 -113 -694 q-8 -41 -20.5 -63.5 q-12.5 -22.5 -34 -32 q-21.5 -9.5 -57.5 -9.5 l-202 0 q-34 0 -52.5 7.5 q-18.5 7.5 -25.5 26.5 q-7 19 -3 55 l145 936 q12 76 36 226 q23 139 33 208 q18 116 28 211 q0 29 20 50.5 q20 21.5 45 21.5 l250 0 q25 0 44 -7 q19 -7 36 -25 l17 -97 ZM3653 2419 q58 87 174 254 q139 201 205 303 q25 48 74 75.5 q49 27.5 104 21.5 q28 -4 62 -4 q20 0 60.5 2 q40.5 2 62.5 2 l17 0 q29 1 41 -2 q22 -5 31 -23 q11 -21 -1 -48 q-7 -16 -31 -48 l0 0 q-468 -678 -710 -1025 q-40 -60 -126 -182 q-84 -120 -124 -180 q-18 -31 -50.5 -47 q-32.5 -16 -62.5 -10 l-242 0 q-26 0 -39 3 q-23 5 -33 21 q-19 28 16 81 q88 129 134 192 q75 106 140 187 q13 20 16 40 q3 24 -8 41 q-53 149 -153.5 447.5 q-100.5 298.5 -153.5 447.5 q-12 42 -11 63 q1 23 20 32.5 q19 9.5 64 9.5 l218 0 q50 0 74 -8 q24 -8 38 -31 q12 -19 25 -66 l169 -549 ZM2306 2032 q0 4 4.5 9.5 q4.5 5.5 8.5 8 q4 2.5 4 -1.5 q0 -32 -8 -40 q13 14 -9 24 ZM1089 3645 q-52 4 -107 4 q-34 0 -105 -2 q-92 -2 -151 -2 l0 8 l-347 0 q-45 0 -69.5 -9.5 q-24.5 -9.5 -38.5 -34.5 q-13 -23 -21 -69 q-13 -92 -44 -276 q-26 -150 -37 -224 l-169 -1040 q-4 -33 1 -50.5 q5 -17.5 21.5 -26 q16.5 -8.5 50.5 -12.5 l250 0 q40 0 63 9 q23 9 34 30 q11 21 15 58 q9 61 29 181.5 q20 120.5 28 181.5 q8 49 21 73 q13 24 39 34 q22 10 69 14 l226 0 q125 0 241 46 q112 45 210 131 q91 91 143.5 211.5 q52.5 120.5 58.5 248.5 q30 235 -75.5 366.5 q-105.5 131.5 -335.5 149.5 ZM1040 3113 q4 -68 -24 -127.5 q-28 -59.5 -80 -96.5 q-54 -38 -121 -42 l-121 0 q-57 0 -75 2 q-26 3 -35 14 q-9 11 -7 38 q1 18 12 75 q7 41 19 123 q12 92 21 135 q6 43 26.5 60.5 q20.5 17.5 62.5 11.5 q28 -4 84.5 -4 q56.5 0 84.5 -4 q44 0 81 -21.5 q37 -21.5 58.5 -58.5 q21.5 -37 21.5 -81 q-5 -5 -7 -12 q-1 -4 -1 -12 ZM5645 3637 q-48 8 -72 11 q-41 5 -73 5 l-669 0 q-54 0 -76.5 -21 q-22.5 -21 -28.5 -76 q-16 -88 -23 -133 q-12 -74 -18 -133 q-29 -195 -91 -590 q-75 -472 -110 -708 q-6 -44 9.5 -62.5 q15.5 -18.5 62.5 -18.5 l275 0 q30 -6 56 15.5 q26 21.5 32 57.5 l0 0 q11 91 30 206 q11 68 35 205 l0 0 q8 38 21 58.5 q13 20.5 36 29.5 q23 9 64 9 l242 0 q210 13 351 99 q154 94 229 280 q54 149 65 274 q12 204 -77 328 q-87 121 -270 164 ZM5258 2847 q-40 0 -81 0 q-56 0 -74 2 q-26 2 -35 12.5 q-9 10.5 -7 36.5 q1 17 12 70 l6 36 q13 82 19 122 q10 67 15 124 q8 32 16 44 q13 21 40 21 q108 10 242 -17 q50 -12 81.5 -51.5 q31.5 -39.5 31.5 -93.5 q12 -67 -10.5 -131.5 q-22.5 -64.5 -72.5 -109.5 q-51 -45 -118 -57 q-22 -6 -39 -7 q-10 -1 -26 -1 l0 0 ZM2806 3073 l-201 0 q-50 0 -66 -2 q-24 -3 -35 -12 q-11 -9 -17 -31 q-4 -14 -11 -60 l-1 -5 q-2 -6 -7 -11 q-36 53 -93 89 q-55 35 -117 48 q-189 38 -358 -17 q-155 -50 -272 -172 q-112 -116 -165.5 -273.5 q-53.5 -157.5 -35.5 -320.5 q8 -96 54 -181 q46 -85 121 -142 q77 -60 172 -80 q145 -36 288.5 -2 q143.5 34 252.5 131 q13 0 16 -6 q2 -4 0 -13 l0 -5 q0 -39 4 -55 q6 -20 22.5 -27 q16.5 -7 53.5 -7 l226 0 q37 -6 68 17 q31 23 37 64 l0 16 q7 42 19 124 q13 91 21 134 q20 121 56.5 359 q36.5 238 56.5 359 q4 33 -1.5 50 q-5.5 17 -25.5 24 q-20 7 -62 7 ZM2427 2540 q0 -91 -46 -168 q-45 -74 -123 -118 q-78 -44 -169 -44 l0 0 q-63 -8 -121 18 q-55 25 -92 74 q-37 49 -45 109 q0 35 1 53 q1 31 7 52 q16 91 75 159 q58 65 143 94 q85 29 177 13 l8 0 q56 -12 99.5 -48 q43.5 -36 66.5 -87 q23 -51 19 -107 l0 0 ZM7298 3073 q-92 0 -185 0 q-57 0 -75 -2 q-28 -3 -43 -13.5 q-15 -10.5 -26 -35.5 q-8 -17 -25 -70 q-31 49 -78 82 q-49 35 -108 47 q-137 35 -275 16 q-134 -19 -250.5 -87 q-116.5 -68 -196.5 -174 q-84 -111 -117 -247 q-24 -109 -24 -218 q4 -120 46.5 -215.5 q42.5 -95.5 119 -160 q76.5 -64.5 181.5 -92.5 q91 -24 184.5 -18 q93.5 6 178.5 42 q109 49 193 121 l0 -32 q-4 -41 2 -61.5 q6 -20.5 25.5 -28 q19.5 -7.5 61.5 -7.5 l202 0 q51 0 78 23 q31 24 43 82 q0 7 3 23 q5 20 5 34 l145 927 q6 32 -9 48.5 q-15 16.5 -56 16.5 ZM6895 2484 q-12 -80 -60.5 -144.5 q-48.5 -64.5 -121.5 -101 q-73 -36.5 -157 -36.5 q-63 -8 -120 18 q-55 26 -92.5 76.5 q-37.5 50.5 -45.5 114.5 q0 31 1 45 q2 22 7 44 q12 80 60.5 144.5 q48.5 64.5 122 101 q73.5 36.5 156.5 36.5 q67 4 126 -26 q57 -29 92.5 -82.5 q35.5 -53.5 39.5 -117.5 q0 -24 -1 -36 q-1 -20 -7 -36 l0 0 Z" /><glyph glyph-name="fi_tickets-restaurants" unicode="&#xea11;" d="M4797 3939 l-4594 0 q-55 0 -101.5 -27.5 q-46.5 -27.5 -74 -74 q-27.5 -46.5 -27.5 -102.5 l0 -2470 q0 -41 15.5 -78 q15.5 -37 44 -66 q28.5 -29 66 -44 q37.5 -15 77.5 -15 l4594 0 q40 0 77.5 15 q37.5 15 66 44 q28.5 29 44 66 q15.5 37 15.5 78 l0 2471 q0 55 -27.5 101.5 q-27.5 46.5 -74 74 q-46.5 27.5 -101.5 27.5 ZM4300 1468 l-3600 0 q-41 100 -118 176 q-77 76 -177 116 l0 1476 q102 40 180.5 117.5 q78.5 77.5 119.5 179.5 l3600 0 q41 -99 116 -174 q75 -75 174 -116 l0 -1487 q-100 -40 -176.5 -115 q-76.5 -75 -118.5 -173 ZM4060 3139 q-2 1 -7 4 q-12 6 -18 10 l-12 8 l-3084 0 q-53 -1 -98.5 -26 q-45.5 -25 -74.5 -68 q-33 -50 -40.5 -108.5 q-7.5 -58.5 12.5 -114.5 q23 -65 68 -100 q38 -29 94 -40 q36 -6 97 -6 l1532 0 q69 0 99 7 q36 9 53 34 q17 25 28 80 l1195 0 q66 -3 130 10 q41 9 73 36.5 q32 27.5 46.5 66 q14.5 38.5 9 78.5 q-5.5 40 -28.5 72 q-30 38 -74 57 ZM4013 2380 q-59 6 -118 6 l-1973 0 q-35 0 -49 2.5 q-14 2.5 -20 10.5 q-4 6 -8 24 q-18 53 -65 82 q-60 45 -132.5 66.5 q-72.5 21.5 -147.5 16.5 l-626 0 q-35 0 -56 -4 q-40 -8 -63 -30 q-30 -28 -31 -80 q-2 -24 5.5 -46.5 q7.5 -22.5 23.5 -39.5 q26 -21 57.5 -30 q31.5 -9 63.5 -5 l587 0 q20 1 41 0 l3 -15 q-23 -7 -47 -4 l-583 0 q-35 0 -57 -4 q-39 -8 -62 -29 q-29 -28 -31 -78 q-2 -24 5.5 -47 q7.5 -23 23.5 -41 q25 -21 56 -30.5 q31 -9.5 64 -5.5 l584 0 q21 2 42 1 l0 -15 q-22 -5 -45 -4 l-580 0 q-12 0 -31 -3 q-34 -5 -58 -17 q-34 -17 -45 -44 q-10 -28 -5.5 -57 q4.5 -29 21.5 -53 q17 -26 45 -41.5 q28 -15.5 61 -15.5 l737 0 q3 0 15 3 l12 2 q44 3 84 24 q82 56 133 141 q11 17 16.5 23 q5.5 6 12.5 8 q5 1 21 1 l1977 0 q92 1 138 5 q41 3 76 25 q35 22 55.5 58 q20.5 36 21 78 q0.5 42 -19 78.5 q-19.5 36.5 -54 59.5 q-34.5 23 -76.5 27 l1 -3 Z" /><glyph glyph-name="fi_virements" unicode="&#xea12;" d="M1197 2633 l0 239 l36 -17 q35 -22 75.5 -15 q40.5 7 66.5 39 l12 18 q13 18 17 40 q4 22 -1 44 q-13 45 -53 69 q-73 42 -155 60 q-3 29 -20 53 q-17 24 -43.5 36.5 q-26.5 12.5 -55.5 9.5 q-44 1 -75.5 -29 q-31.5 -30 -33.5 -73 q-74 -22 -130 -72 q-56 -50 -85.5 -119.5 q-29.5 -69.5 -26.5 -145.5 q-3 -75 27 -142.5 q30 -67.5 86 -115.5 q56 -48 129 -66 l0 -257 q-48 15 -90 41 q-34 22 -74 16 q-40 -6 -66 -37 l-9 -10 q-15 -16 -22 -37 q-7 -21 -6 -43 q3 -25 16 -47 q13 -22 34 -36 q101 -63 219 -83 q6 -43 40.5 -70.5 q34.5 -27.5 77.5 -24.5 q44 0 75.5 30 q31.5 30 33.5 73 q77 21 136.5 72.5 q59.5 51.5 90.5 123.5 q31 72 27 152 q0 107 -49 184 q-64 99 -204 140 ZM968 2715 q-12 28 -10 59 q-1 29 9 57 l1 -116 ZM1197 2223 l0 158 q13 -16 18.5 -36 q5.5 -20 2.5 -40 q2 -45 -21 -83 l0 1 ZM4811 4693 l-2951 0 q-37 0 -72 -14.5 q-35 -14.5 -61.5 -41.5 q-26.5 -27 -41 -61.5 q-14.5 -34.5 -14.5 -72.5 l0 -503 l-1100 0 q-113 0 -218 -43 q-105 -43 -185.5 -123 q-80.5 -80 -124 -185 q-43.5 -105 -43.5 -218 l0 -1893 q0 -115 45 -221 q43 -102 121.5 -180.5 q78.5 -78.5 180.5 -121.5 q106 -44 221 -45 l1325 0 l0 -284 l-655 0 q-50 -3 -91 -29 q-41 -26 -65 -68.5 q-24 -42.5 -24 -92 q0 -49.5 24 -92 q24 -42.5 65 -68.5 q41 -26 91 -29 l1688 0 q49 3 90.5 29 q41.5 26 65 68.5 q23.5 42.5 23.5 92 q0 49.5 -23.5 92 q-23.5 42.5 -65 68.5 q-41.5 26 -91.5 29 l-654 0 l0 285 l1325 0 q115 0 221 44 q101 44 179.5 122.5 q78.5 78.5 122.5 179.5 q44 106 44 221 l0 889 l648 0 q37 -1 72 13.5 q35 14.5 61.5 41.5 q26.5 27 41 61.5 q14.5 34.5 14.5 72.5 l0 1888 q0 37 -14.5 72 q-14.5 35 -41 61.5 q-26.5 26.5 -61.5 41 q-35 14.5 -73 13.5 l1 1 ZM4621 4314 l0 -309 l-2571 0 l0 309 l2571 0 ZM3785 1538 q0 -51 -25.5 -94 q-25.5 -43 -69 -68.5 q-43.5 -25.5 -94.5 -25.5 l-3028 0 q-38 0 -72.5 14.5 q-34.5 14.5 -61.5 41 q-27 26.5 -41.5 61.5 q-14.5 35 -13.5 73 l0 1891 q0 51 25 95 q25 44 69 69.5 q44 25.5 95 25.5 l1100 0 l0 -1005 q0 -38 14.5 -72.5 q14.5 -34.5 41 -61.5 q26.5 -27 61.5 -41.5 q35 -14.5 73 -13.5 l1927 0 l0 -889 ZM2050 2805 l0 822 l2572 0 l0 -822 l-2572 0 Z" /><glyph glyph-name="fi_visa" unicode="&#xea13;" d="M4772 820 l-4544 0 q-45 -1 -87 16.5 q-42 17.5 -74 49.5 q-32 32 -49.5 74 q-17.5 42 -17.5 87 l0 2906 q0 45 17.5 87 q17.5 42 49.5 74 q32 32 74 49.5 q42 17.5 87 17.5 l4544 0 q45 0 87 -17.5 q42 -17.5 74 -49.5 q32 -32 49.5 -74 q17.5 -42 17.5 -87 l0 -2906 q0 -45 -17.5 -87 q-17.5 -42 -49.5 -74 q-32 -32 -74 -49.5 q-42 -17.5 -87 -17.5 l0 1 ZM456 1275 l4089 0 l0 2450 l-4089 0 l0 -2450 ZM4189 2083 l-194 882 q-5 24 -24.5 39.5 q-19.5 15.5 -44.5 14.5 l-169 0 q-26 0 -50 -2 q-46 -5 -83 -31.5 q-37 -26.5 -55 -68.5 l-355 -800 l-41 -108 l332 0 l50 7 l50 129 l230 0 l30 -135 l271 0 l60 14 l-7 59 ZM3768 2440 l-50 0 l32 84 l18 -84 ZM1978 3020 l-378 0 l-185 -470 l-72 345 q-7 40 -33 71 q-26 31 -64 44 q-36 12 -74 12 l-396 0 l-46 -13 l-8 -50 l4 -51 l41 -17 q71 -17 139 -45 q24 -10 61 -28 l19 -7 l214 -761 l22 -37 l37 -5 l250 0 l45 7 l400 929 l24 76 ZM3154 2533 q-43 50 -101 82 q-16 8 -49 25 l-63 33 q-36 13 -57 46 q31 16 65 15 q84 4 162 -26 l97 -41 l45 258 l0 57 l-45 16 q-84 28 -173 35 q-89 7 -177 -8 q-100 -15 -186 -68 q-69 -39 -112 -106 q-43 -67 -50 -146 q-7 -76 28 -142 q42 -72 112 -117 q59 -39 124 -67 q40 -17 72 -45 l1 -17 q-22 -15 -47 -17 q-42 -5 -84 0 q-63 3 -121 25 q-12 4 -36 14 l-104 42 l-43 -253 q-8 -28 6.5 -53.5 q14.5 -25.5 43.5 -31.5 q117 -41 242 -45 l37 0 q45 -1 90 2 q89 10 171.5 46 q82.5 36 141.5 104 q32 39 51 86 q19 47 23 98 q5 54 -12 106 q-17 52 -52 93 ZM2098 3027 l-162 -946 l0 -67 l295 0 l55 5 l172 1008 l-360 0 Z" /><glyph glyph-name="fi_website" unicode="&#xea14;" d="M4397 4700 l-3637 0 q-141 0 -277.5 -46.5 q-136.5 -46.5 -243.5 -130.5 q-112 -88 -173 -201 q-66 -122 -66 -258 l0 -2273 q0 -137 66 -274 q63 -131 173 -237.5 q110 -106.5 244 -166.5 q139 -63 277 -63 l1490 0 l0 -250 l-685 0 q-61 0 -112.5 -30.5 q-51.5 -30.5 -82 -82 q-30.5 -51.5 -30.5 -112.5 q0 -61 30.5 -112.5 q30.5 -51.5 82 -82 q51.5 -30.5 112.5 -30.5 l2027 0 q61 0 112.5 30.5 q51.5 30.5 82 82 q30.5 51.5 30.5 112.5 q0 61 -30.5 112.5 q-30.5 51.5 -82 82 q-51.5 30.5 -112.5 30.5 l-842 0 l0 250 l1647 0 q136 0 252 63 q109 59 190 167 q78 103 119.5 236 q41.5 133 41.5 275 l0 2273 q0 188 -73 332 q-73 144 -207 223 q-139 81 -323 81 ZM4550 1728 q0 -62 -30.5 -114.5 q-30.5 -52.5 -83 -83 q-52.5 -30.5 -113.5 -30.5 l-3645 0 q-62 0 -114.5 30.5 q-52.5 30.5 -83 83 q-30.5 52.5 -30.5 114.5 l0 2295 q0 61 30.5 113.5 q30.5 52.5 83 83 q52.5 30.5 114.5 30.5 l3645 0 q61 0 113.5 -30.5 q52.5 -30.5 83 -83 q30.5 -52.5 30.5 -113.5 l0 -2295 ZM2950 2897 l285 129 q65 30 100.5 91.5 q35.5 61.5 29.5 132.5 q-6 71 -51.5 126 q-45.5 55 -113.5 74 l-1169 323 q-60 17 -119.5 1.5 q-59.5 -15.5 -103 -59 q-43.5 -43.5 -59 -103 q-15.5 -59.5 0.5 -118.5 l322 -1171 q18 -69 73 -114.5 q55 -45.5 127 -51.5 l18 0 q67 -2 124.5 34.5 q57.5 36.5 85.5 98.5 l129 286 l400 -400 q44 -44 102.5 -58.5 q58.5 -14.5 117 1.5 q58.5 16 101.5 60 q43 44 58 102.5 q15 58.5 -1 117 q-16 58.5 -60 101.5 l-397 397 Z" /><glyph glyph-name="mail" unicode="&#xea15;" d="M5000 3818 q0 139 -54 265 q-51 123 -145.5 217.5 q-94.5 94.5 -217.5 145.5 q-126 54 -265 54 l-3636 0 q-139 0 -265 -54 q-123 -51 -217.5 -145.5 q-94.5 -94.5 -145.5 -217.5 q-54 -126 -54 -265 l0 -2736 q0 -139 54 -265 q51 -123 145.5 -217.5 q94.5 -94.5 217.5 -145.5 q126 -54 265 -54 l3636 0 q139 0 265 54 q123 51 217.5 145.5 q94.5 94.5 145.5 217.5 q54 126 54 265 l0 2736 ZM700 4050 l3637 0 q65 -2 118.5 -37.5 q53.5 -35.5 81.5 -93.5 l-2018 -1419 l-2019 1420 q28 58 82 93 q54 35 118 37 ZM4337 850 l-3637 0 q-65 1 -120.5 33 q-55.5 32 -90 85.5 q-34.5 53.5 -39.5 118.5 l0 2290 l1927 -1340 q62 -42 136 -42 q70 1 126 42 l1911 1340 l0 -2290 q3 -45 -12 -87.5 q-15 -42.5 -45 -75.5 q-30 -33 -70.5 -52.5 q-40.5 -19.5 -85.5 -21.5 Z" /><glyph glyph-name="phone" unicode="&#xea16;" d="M3450 2130 q-206 113 -400 80.5 q-194 -32.5 -371 -210.5 q-41 -40 -131 -5 q-74 29 -172 104 q-80 61 -150 132 q-97 97 -146 152 q-84 96 -121 167 q-20 38 -24 61 q-4 20 3 35 q4 10 20 27 l1 0 q57 57 93 102 q63 82 98 167 q46 111 42 227 q-4 138 -78 281 q-53 99 -147 218 q-86 107 -232 259 q-105 110 -326 332 q-83 91 -196 141.5 q-113 50.5 -236 49.5 q-114 -2 -228 -47 q-100 -40 -204 -113 q-84 -60 -178 -149 q-56 -52 -154 -153 l-63 -67 q-236 -236 -140 -681 q74 -343 339 -786 q170 -286 389 -566 q498 -642 1141 -1138 q422 -295 791 -478 q504 -249 837 -249 q108 -6 210.5 31.5 q102.5 37.5 182.5 112.5 q19 18 64 60 l5 5 q94 89 144 141 q86 90 146 173 q73 102 112 203 q46 116 47 233 q0 135 -54 258 q-54 123 -152 214 q-212 214 -308 307 q-144 139 -245 222 q-113 93 -209 147 ZM3600 630 q-34 -28 -60 -63 q-57 -19 -199 23 q-136 40 -326.5 129 q-190.5 89 -398.5 210 q-217 126 -415 263 q-579 449 -1029 1025 l-3 4 q-137 174 -256 361 q-110 171 -197 338 q-82 157 -133 290 q-50 129 -63 214.5 q-13 85.5 13 111.5 l70 72 q117 121 189 183 q129 112 189 113 q13 0 42 -28 l0 0 q185 -185 285 -288 q156 -162 239 -264 q101 -124 103 -169 l-4 -10 q-7 -14 -21 -32 q-19 -25 -49 -55 q-104 -103 -151.5 -227 q-47.5 -124 -35 -259 q12.5 -135 83.5 -272 q63 -121 175 -253 q68 -80 191 -201 q305 -306 591 -386 q219 -61 413 14 q123 47 218 141 q32 35 73 59 q45 -3 155 -92 q91 -74 242 -219 q90 -87 285 -281 l14 -14 q19 -15 31 -35 q12 -20 16 -43 q-1 -64 -105 -184 q-57 -66 -172 -174 l-2 -3 l2 1 ZM2709 3677 q193 0 370.5 -73.5 q177.5 -73.5 313.5 -210.5 q133 -134 207 -308 q74 -174 76 -363 q2 -74 39 -136 q37 -62 99 -98.5 q62 -36.5 136 -37.5 l5 0 q75 2 137 40.5 q62 38.5 97 102.5 q35 64 34 139 q-6 304 -127 581 q-117 267 -326 472.5 q-209 205.5 -478 317.5 q-279 117 -583 117 q-75 3 -141 -32.5 q-66 -35.5 -104.5 -100 q-38.5 -64.5 -38.5 -139.5 q0 -75 38.5 -139 q38.5 -64 104.5 -100 q66 -36 141 -32 ZM4397 4416 q-186 186 -415 318 q-226 131 -479 199 q-254 68 -518 67 q-74 0 -136.5 -36.5 q-62.5 -36.5 -99.5 -99 q-37 -62.5 -36.5 -137 q0.5 -74.5 37 -137 q36.5 -62.5 99 -99 q62.5 -36.5 136.5 -36.5 q289 1 556 -109.5 q267 -110.5 471 -315.5 q201 -208 311.5 -476.5 q110.5 -268.5 112.5 -557.5 q1 -75 38 -143.5 q37 -68.5 98 -109.5 q65 -43 137 -43 l4 0 q72 -1 136 44 q61 42 97 112.5 q36 70.5 36 146.5 q-3 263 -72 516 q-69 253 -199 480.5 q-130 227.5 -315 416.5 l1 0 Z" /><glyph glyph-name="search" unicode="&#xea17;" d="M4925 438 l-925 925 q219 275 342 601 q120 317 141 656 q21 335 -57 661 q-78 331 -250 622 q-178 300 -440.5 534.5 q-262.5 234.5 -581.5 376.5 q-309 137 -646 178 q-333 40 -664 -19 q-334 -60 -634 -215 q-311 -160 -559.5 -408.5 q-248.5 -248.5 -408.5 -559.5 q-155 -300 -215 -634 q-59 -331 -19 -664 q41 -337 178 -646 q142 -319 376.5 -581.5 q234.5 -262.5 534.5 -440.5 q291 -172 622 -250 q326 -78 661 -57 q339 21 656 141 q326 123 602 342 l925 -925 q49 -46 114 -61.5 q65 -15.5 129 2.5 q64 18 112 66 q48 48 66 112 q18 64 2.5 129 q-15.5 65 -61.5 114 l0 1 ZM513 2757 q0 259 76 507 q74 243 215.5 454.5 q141.5 211.5 337.5 372.5 q200 165 440 264.5 q240 99.5 498 124.5 q253 24 502 -25.5 q249 -49.5 474 -168.5 q228 -122 412 -305.5 q184 -183.5 305 -412.5 q119 -225 168.5 -474 q49.5 -249 25.5 -502 q-24 -258 -123.5 -498 q-99.5 -240 -264.5 -440 q-162 -196 -373.5 -337 q-211.5 -141 -454.5 -216 q-248 -76 -508 -75 q-281 0 -546 88 q-256 86 -475 246 q-216 159 -375 375 q-160 219 -245 475 q-89 265 -89 546 l0 1 Z" /></font>
</defs>
</svg>
