<svg id="Mode_Isolation" data-name="Mode Isolation" xmlns="http://www.w3.org/2000/svg" width="99.8" height="52.15" viewBox="0 0 99.8 52.15">
  <title>fi_arrow-left</title>
  <path d="M25.42,74.92a4.27,4.27,0,0,0,.5-6h0l-12.6-14.8h82.4a4.2,4.2,0,0,0,0-8.4H13.32l12.6-14.8a4.25,4.25,0,1,0-6.3-5.7c0,.1-.1.1-.1.2L1,47.22H1l-.1.1-.1.2-.1.2-.1.2-.1.2-.1.2-.1.2-.1.2H.12v2.4l.1.2.1.2.1.2.1.2.1.2.1.2.1.2.1.2.1.1H1l18.4,21.7a4.26,4.26,0,0,0,6,.4Z" transform="translate(-0.12 -23.83)" fill="#231f20"/>
</svg>
