<?xml version="1.0" encoding="utf-8"?>
<!-- Generator: Adobe Illustrator 20.0.0, SVG Export Plug-In . SVG Version: 6.00 Build 0)  -->
<svg version="1.1" id="Mode_Isolation" xmlns="http://www.w3.org/2000/svg" xmlns:xlink="http://www.w3.org/1999/xlink" x="0px"
	 y="0px" viewBox="0 0 100 100" style="enable-background:new 0 0 100 100;" xml:space="preserve">
<style type="text/css">
	.st0{fill:#231F20;}
</style>
<title>fi_arrow-bottom</title>
<path class="st0" d="M25,25.3c1.5,1.8,4.2,2,6,0.5c0,0,0,0,0,0l14.8-12.6v82.4c0,2.3,1.9,4.2,4.2,4.2c2.3,0,4.2-1.9,4.2-4.2
	c0,0,0,0,0,0V13.2L69,25.8c1.7,1.6,4.4,1.4,6-0.3c1.6-1.7,1.4-4.4-0.3-6c-0.1,0-0.1-0.1-0.2-0.1L52.7,0.9l0,0l-0.1-0.1l-0.2-0.1
	l-0.2-0.1l-0.2-0.1l-0.2-0.1l-0.2-0.1l-0.2-0.1l-0.2-0.1L51.2,0L51,0h-0.2h-0.2h-0.2H50h-0.4h-0.2h-0.2H49L48.8,0l-0.2,0.1l-0.2,0.1
	l-0.2,0.1l-0.2,0.1l-0.2,0.1l-0.2,0.1l-0.2,0.1l-0.2,0.1l-0.1,0.1l0,0L25.4,19.3C23.7,20.8,23.4,23.5,25,25.3
	C25,25.3,25,25.3,25,25.3z"/>
</svg>
