<svg id="Mode_Isolation" data-name="Mode Isolation" xmlns="http://www.w3.org/2000/svg" width="100" height="100" viewBox="0 0 100 100">
  <title>fi_arrow-bottom</title>
  <path d="M75,74.56a4.23,4.23,0,0,0-6-.49L54.23,86.63V4.23a4.23,4.23,0,1,0-8.46,0v82.4L31,74.07a4.23,4.23,0,1,0-5.47,6.45L47.26,99l0,0,.14.11.18.13.15.1.18.11.16.08.19.09.17.07.19.07.18.06.2.05.18,0,.24,0,.15,0,.4,0,.4,0,.15,0,.24,0,.18,0,.2-.05.18-.06.19-.07.17-.07.19-.09.16-.08.18-.11.15-.1.18-.13.14-.11,0,0L74.52,80.53A4.23,4.23,0,0,0,75,74.56Z" fill="#231f20"/>
</svg>
