<svg id="Calque_1" data-name="Calque 1" xmlns="http://www.w3.org/2000/svg" width="100" height="100" viewBox="0 0 100 100">
  <title>fi_mail</title>
  <path d="M100,23.62A13.64,13.64,0,0,0,86.36,10H13.64A13.64,13.64,0,0,0,0,23.62V78.35A13.64,13.64,0,0,0,13.64,92H86.36A13.64,13.64,0,0,0,100,78.35ZM13.64,19H86.36a4.6,4.6,0,0,1,4,2.63L50,49.94,9.61,21.6A4.58,4.58,0,0,1,13.64,19ZM86.36,83H13.64A4.79,4.79,0,0,1,9,78.26V32.44L47.35,59.26a4.62,4.62,0,0,0,2.63.82,4.73,4.73,0,0,0,2.66-.82L91,32.44V78.26A4.79,4.79,0,0,1,86.36,83Z"/>
</svg>
