<svg id="Calque_1" data-name="Calque 1" xmlns="http://www.w3.org/2000/svg" width="100" height="100" viewBox="0 0 100 100">
  <title>fi_carte-bleue</title>
  <path d="M95.33,35.29H82.14V11.93a4.67,4.67,0,0,0-4.67-4.67H4.67A4.67,4.67,0,0,0,0,11.93V58.47a4.67,4.67,0,0,0,4.67,4.67h13.2V86.51a4.67,4.67,0,0,0,4.67,4.67h72.8A4.67,4.67,0,0,0,100,86.51V40A4.67,4.67,0,0,0,95.33,35.29ZM72.8,16.6v4.71H9.34V16.6ZM9.34,53.81V30.64H72.8v4.65H22.53A4.67,4.67,0,0,0,17.86,40V53.81Zm81.33,28H27.2V44.63H90.66Zm-60-25.06v-4.2a4.67,4.67,0,0,1,4.67-4.67h4.2a4.67,4.67,0,0,1,4.67,4.67v4.2a4.67,4.67,0,0,1-4.67,4.67h-4.2A4.67,4.67,0,0,1,30.63,56.79Z"/>
</svg>
