<svg id="Calque_1" data-name="Calque 1" xmlns="http://www.w3.org/2000/svg" width="100" height="100" viewBox="0 0 100 100">
  <title>fi_cheques-vacances</title>
  <path d="M95.94,80H4.06A4.06,4.06,0,0,1,0,75.91V26.51a4.06,4.06,0,0,1,4.06-4.06H95.94A4.06,4.06,0,0,1,100,26.51V75.91A4.06,4.06,0,0,1,95.94,80ZM8.13,71.85H91.87V30.57H8.13Z"/>
  <g>
    <path d="M53,51.59A2.62,2.62,0,0,1,54.7,51l1.23,0,.34,0,0-.15-1.79-.58a3.09,3.09,0,0,1-.93-.37,5.88,5.88,0,0,0-4.08-1.24H49l0-.15c4.42-5.42,10.24-8.36,17-9.59a4.57,4.57,0,0,0-.66,0,26.6,26.6,0,0,0-7.54,1.22,23.52,23.52,0,0,0-11.59,7.67,1.34,1.34,0,0,1-2.09.37,5.75,5.75,0,0,1-1.82-1.8c-1.19-1.75-2.4-3.49-3.55-5.27a8.84,8.84,0,0,0-5.21-3.8A41.17,41.17,0,0,0,26,35.94a102,102,0,0,0-10.41-.42h-.73A3.26,3.26,0,0,0,17,36.68a47,47,0,0,1,9.93,3.07A24.85,24.85,0,0,1,33.65,44,14.38,14.38,0,0,1,38,51c.19.72,0,1-.62,1.31-1.31.6-2.63,1.18-3.91,1.84-.88.45-1.7,1-2.53,1.53-.11.07-.21.33-.17.4a.78.78,0,0,0,.43.25,1,1,0,0,0,.37,0,27.08,27.08,0,0,1,5.28-.38c2,.05,4.09.14,6.14.17a11.2,11.2,0,0,0,6.35-1.81C50.61,53.41,51.81,52.51,53,51.59Z"/>
    <path d="M55.87,64.9l-.26.11-.13,0,0-.12c.42-2,.83-3.91,1.27-5.86a1.09,1.09,0,0,0-.63-1.36,5.29,5.29,0,0,0-4.26-.21,6.61,6.61,0,0,0-4.32,6.92,3.27,3.27,0,0,0,1.15,2.25,3.33,3.33,0,0,0,2.14.75l.36,0a4.31,4.31,0,0,0,2-.7,2.18,2.18,0,0,0,2.25.56,1.46,1.46,0,0,0,1.16-1.44c0-.12,0-.25.07-.37l.29-1Zm-1.81-5.51-.17.73c-.27,1.2-.55,2.45-.91,3.64a1.78,1.78,0,0,1-1.5,1.37,1,1,0,0,1-1.29-.85,4.38,4.38,0,0,1-.06-.6v-.22a4.63,4.63,0,0,1,2.54-3.85A2.13,2.13,0,0,1,54.07,59.39Z"/>
    <path d="M65.47,65.05s0-.06,0-.08c.12-.57.24-1.13.36-1.7.17-.81.35-1.63.5-2.44a2.84,2.84,0,0,0-1-3,3.94,3.94,0,0,0-2.77-.59,4.66,4.66,0,0,0-4.35,3.6c-.26,1-.49,2.08-.71,3.13l-.26,1.22c-.07.31-.13.62-.19.94l-.23,1.17h2a.88.88,0,0,0,.73-.61c.1-.38.17-.75.26-1.13s.12-.54.18-.82l.22-1c.18-.83.38-1.68.62-2.49A2.13,2.13,0,0,1,62.7,59.5a1.23,1.23,0,0,1,.87.16.8.8,0,0,1,.19.59,3.18,3.18,0,0,1-.08.69l-.36,1.69c-.15.67-.29,1.35-.45,2.13a3.68,3.68,0,0,0-.1,1.1A1.69,1.69,0,0,0,63.4,67a1.85,1.85,0,0,0,1.17.37l.32,0c1.48-.18,1.64-.65,1.7-1.95l0-.77L65.7,65Z"/>
    <path d="M83.66,57.32c-.35,0-.67,0-1,0a1,1,0,0,0-.77.46q-1,1.71-1.93,3.44L79,63l0-.32c-.19-1.54-.38-3.09-.58-4.62a.87.87,0,0,0-.68-.74c-.35,0-.69,0-1.07,0h-1l1.48,9.93h.62a.41.41,0,0,1,.12,0,2.59,2.59,0,0,0,.44,0A2,2,0,0,0,80,66.06c.71-1.32,1.47-2.62,2.23-3.92l1-1.76L85,57.33Z"/>
    <path d="M71.45,59.64a1.48,1.48,0,0,1,1.12-.21,1,1,0,0,1,.57.6l.16.38L75.58,60l-.06-.47a2.54,2.54,0,0,0-2-2.2,4.7,4.7,0,0,0-4.06.9,6.74,6.74,0,0,0-2.56,6.08,3.09,3.09,0,0,0,2.14,2.84,5.47,5.47,0,0,0,1.81.32,5.93,5.93,0,0,0,2.91-.81.82.82,0,0,0,.42-.51c.07-.29.13-.59.19-.9l.17-1.31-.9.4a.93.93,0,0,0-.2.1,5,5,0,0,1-2.19.77,1.84,1.84,0,0,1-1.34-.32,1.48,1.48,0,0,1-.42-1.12,5.56,5.56,0,0,1,.62-2.54A3.23,3.23,0,0,1,71.45,59.64Z"/>
  </g>
</svg>
