<svg id="Calque_1" data-name="Calque 1" xmlns="http://www.w3.org/2000/svg" width="100" height="100" viewBox="0 0 100 100">
  <title>fi_especes</title>
  <g>
    <path d="M100,50.51c0-.15,0-.29,0-.44s0-.14,0-.22V35.19c0-.15,0-.29,0-.44s0-.14,0-.22V19.78C100,10.28,84.55,6,69.29,6S38.62,10.28,38.62,19.78a8.27,8.27,0,0,0,.21,1.82v6.28a30.68,30.68,0,1,0,2,58.41,12.86,12.86,0,0,0,2.63,2.39c5.2,3.63,14.9,5.79,25.93,5.79C84.6,94.47,100,90.21,100,80.72a4.76,4.76,0,0,0-.09-.47c0-.09,0-.16,0-.25ZM89.74,49.43c-1.74,1.56-9,4.19-20.41,4.19A65.33,65.33,0,0,1,61,53a30.44,30.44,0,0,0-1.18-5.14,76.36,76.36,0,0,0,9.52.61c7.36,0,14.73-1,20.41-3.09Zm-29,13.87a76.51,76.51,0,0,0,8.63.54c7.36,0,14.73-1,20.41-3.09v4.07C88.07,66.37,80.8,69,69.29,69a64.23,64.23,0,0,1-10-.77A30.65,30.65,0,0,0,60.7,63.29Zm8.58-47c9.94,0,16.74,2,19.48,3.54-2.74,1.55-9.53,3.54-19.48,3.54s-16.74-2-19.48-3.54C52.55,18.24,59.34,16.25,69.29,16.25ZM49,32.57V30.51c5.66,2,13,3,20.25,3s14.77-1,20.46-3.1v3.68c-1.74,1.56-9,4.19-20.41,4.19A54.11,54.11,0,0,1,52.9,36c-.11,0-.22,0-.32,0A30.89,30.89,0,0,0,49,32.87C49,32.76,49,32.67,49,32.57ZM10.21,57.41A20.46,20.46,0,1,1,48.42,67.57c-.14.25-.32.46-.47.7a5.06,5.06,0,0,0-.61.92A20.42,20.42,0,0,1,10.21,57.41ZM50.29,80.9a30.67,30.67,0,0,0,3.4-3.32,70.07,70.07,0,0,0,15.6,1.67c7.38,0,14.77-1,20.46-3.1V80s0,0,0,.06c-1.72,1.56-9,4.2-20.42,4.2C60.48,84.26,53.61,82.61,50.29,80.9Z"/>
    <path d="M33.75,54.93V48.49c.3.12.62.27,1,.44a2.92,2.92,0,0,0,3.85-.68l.33-.45a2.93,2.93,0,0,0,.42-2.26,3.33,3.33,0,0,0-1.4-1.88A14.84,14.84,0,0,0,33.74,42a3,3,0,0,0-3.23-2.66,2.9,2.9,0,0,0-2.93,2.77,9,9,0,0,0-6.52,9.08A8.66,8.66,0,0,0,27.58,60v6.93a9.88,9.88,0,0,1-2.41-1.09,2.87,2.87,0,0,0-3.77.53l-.25.28a2.9,2.9,0,0,0-.74,2.17A3.22,3.22,0,0,0,21.7,71a16.7,16.7,0,0,0,5.9,2.22,3,3,0,0,0,3.22,2.56A2.9,2.9,0,0,0,33.75,73a9.23,9.23,0,0,0,6.83-9.38C40.57,60.46,39.33,56.52,33.75,54.93Zm-6.17-2.21a3.8,3.8,0,0,1-.27-1.6,4.13,4.13,0,0,1,.27-1.54ZM33.75,66V61.73a2.62,2.62,0,0,1,.57,2.05A3.89,3.89,0,0,1,33.75,66Z"/>
  </g>
</svg>
