<svg id="Calque_1" data-name="Calque 1" xmlns="http://www.w3.org/2000/svg" width="100" height="100" viewBox="0 0 100 100">
  <title>fi_filters</title>
  <path d="M50,75.93a4.36,4.36,0,0,1-2.54-.81L1.84,42.62a4.38,4.38,0,0,1,0-7.13L47.46,3a4.38,4.38,0,0,1,5.08,0L98.16,35.49a4.38,4.38,0,0,1,0,7.13L52.54,75.12A4.36,4.36,0,0,1,50,75.93ZM11.92,39.06,50,66.18,88.08,39.06,50,11.94Z"/>
  <path d="M50,97.81A4.36,4.36,0,0,1,47.46,97L1.84,64.5a4.38,4.38,0,0,1,5.08-7.13L50,88.06,93.09,57.38a4.38,4.38,0,0,1,5.08,7.13L52.54,97A4.36,4.36,0,0,1,50,97.81Z"/>
</svg>
