<svg id="Calque_1" data-name="Calque 1" xmlns="http://www.w3.org/2000/svg" width="100" height="100" viewBox="0 0 100 100">
  <title>fi_map</title>
  <g>
    <circle cx="49.64" cy="42.26" r="17.91" fill="#1a171b"/>
    <path d="M49.67,0,48.24,0A42.27,42.27,0,0,0,35.94,82.25L49.64,100,63.33,82.26A42.27,42.27,0,0,0,49.67,0ZM61.08,75.69l-2,.68L57.83,78,49.64,88.63,41.44,78l-1.27-1.65-2-.68A35.52,35.52,0,0,1,14.34,43.44,35.32,35.32,0,0,1,48.47,7l1.2,0A35.32,35.32,0,0,1,61.08,75.69Z" fill="#1a171b"/>
  </g>
</svg>
