<?xml version="1.0" encoding="utf-8"?>
<!-- Generator: Adobe Illustrator 20.0.0, SVG Export Plug-In . SVG Version: 6.00 Build 0)  -->
<svg version="1.1" id="Calque_1" xmlns="http://www.w3.org/2000/svg" xmlns:xlink="http://www.w3.org/1999/xlink" x="0px" y="0px"
	 viewBox="0 0 100 62" style="enable-background:new 0 0 100 62;" xml:space="preserve">
<title>fi_paypal</title>
<g>
	<path d="M100,18.2c-0.3,0.8-0.5,1.7-0.6,2.6c-0.9,5.4-1.7,10.8-2.6,16.1c-0.2,1-0.5,1.3-1.4,1.3s-1.7,0-2.5,0s-1.1-0.2-1-1.1
		c0.6-3.9,1.2-7.7,1.8-11.6c0.4-2.7,0.9-5.3,1.2-8c0-0.5,0.4-0.9,0.8-0.9c0.1,0,0.1,0,0.2,0c1,0,1.9,0,2.9,0c0.4,0,0.7,0.1,1,0.4
		L100,18.2z"/>
	<path d="M45.3,32c1.6-2.4,3.2-4.6,4.7-6.9c0.4-0.8,1.3-1.3,2.2-1.2c0.8,0.1,1.5,0,2.3,0c0.4,0,0.9-0.1,1.1,0.3s-0.1,0.8-0.4,1.2
		c-2.9,4.2-5.8,8.4-8.8,12.7c-1,1.5-2.1,3-3.1,4.5c-0.3,0.5-0.9,0.8-1.4,0.7c-1,0-2,0-3,0c-0.3,0-0.7,0-0.9-0.3s0-0.7,0.2-1
		c1.1-1.6,2.2-3.2,3.4-4.7c0.2-0.3,0.3-0.7,0.1-1c-1.3-3.7-2.5-7.4-3.8-11.1c-0.3-1-0.2-1.3,0.9-1.3h2.7c1.2,0,1.4,0.2,1.7,1.3
		L45.3,32z"/>
	<path d="M28.6,36.8c0-0.1,0.2-0.3,0.2-0.2s0,0.4-0.1,0.5C28.8,37,28.8,36.9,28.6,36.8z"/>
	<path d="M13.5,16.8c-1.5-0.1-2.5,0-4.5,0v-0.1H4.7c-1.1,0-1.4,0.3-1.6,1.4c-0.3,2.1-0.7,4.2-1,6.2C1.4,28.6,0.7,32.9,0,37.2
		c-0.1,0.8,0.1,1,0.9,1.1c1,0,2.1,0,3.1,0s1.3-0.3,1.4-1.2c0.2-1.5,0.5-3,0.7-4.5c0.2-1.2,0.5-1.4,1.6-1.5c0.9,0,1.9,0,2.8,0
		c2.1,0,4-0.8,5.6-2.2c1.5-1.5,2.4-3.6,2.5-5.7C19.1,19.3,17.3,17.1,13.5,16.8z M12.9,23.4c0.1,1.7-1.1,3.2-2.8,3.3
		c-0.2,0-0.3,0-0.5,0c-0.3,0-0.6,0-1,0c-1.6,0-1.6,0-1.3-1.6c0.2-1.1,0.3-2.2,0.5-3.2c0.1-0.7,0.4-1,1.1-0.9s1.4,0,2.1,0.1
		c1.1,0,2,0.9,2,2C12.9,23.2,12.9,23.3,12.9,23.4z"/>
	<path d="M70,16.9c-0.6-0.1-1.2-0.2-1.8-0.2c-2.8,0-5.5,0-8.3,0c-0.9,0-1.2,0.3-1.3,1.2c-0.2,1.1-0.4,2.2-0.5,3.3
		c-0.8,5.3-1.7,10.7-2.5,16.1c-0.1,0.7,0.1,1,0.9,1c0.6,0,1.1,0,1.7,0s1.1,0,1.7,0c0.5,0.1,1-0.3,1.1-0.9c0,0,0,0,0,0
		c0.2-1.7,0.5-3.4,0.8-5.1c0.2-0.9,0.5-1.2,1.5-1.2c1,0,2,0,3,0c3.3-0.2,5.9-1.5,7.2-4.7c0.4-1.1,0.7-2.2,0.8-3.4
		C74.5,19.6,73,17.6,70,16.9z M65.2,26.7c-0.3,0-0.6,0-1,0c-1.6,0-1.6,0-1.3-1.5c0.2-1.2,0.4-2.3,0.5-3.5c0.1-0.4,0.2-0.8,0.7-0.8
		c1-0.1,2,0,3,0.2c0.8,0.2,1.4,0.9,1.4,1.8c0.3,1.7-0.8,3.4-2.5,3.7C65.6,26.7,65.4,26.7,65.2,26.7L65.2,26.7z"/>
	<path d="M34.8,23.9h-2.5c-1.4,0-1.4,0-1.6,1.3c0,0,0,0.1-0.1,0.2c-0.6-0.9-1.6-1.5-2.6-1.7c-6.5-1.3-10.9,4.3-10.3,9.7
		c0.2,2.4,1.9,4.5,4.3,5c2.4,0.6,4.9,0,6.7-1.6c0.3,0,0.2,0.2,0.2,0.3c0,0.9,0.1,1.1,1,1.1s1.8,0,2.8,0c0.6,0.1,1.2-0.3,1.3-1
		c0-0.1,0-0.1,0-0.2c0.2-1.1,0.3-2.2,0.5-3.2c0.5-3,0.9-5.9,1.4-8.9C36,24.1,35.8,23.9,34.8,23.9z M30.1,30.5c0,2.3-1.9,4.1-4.2,4.1
		c0,0,0,0,0,0c-1.6,0.2-3-1-3.2-2.5c0-0.4,0-0.9,0.1-1.3c0.4-2.3,2.6-3.7,4.9-3.3c0,0,0.1,0,0.1,0C29.2,27.8,30.2,29.1,30.1,30.5
		L30.1,30.5z"/>
	<path d="M90.5,23.9c-0.8,0-1.5,0-2.3,0c-1.6,0-1.6,0-2.1,1.5c-0.5-0.8-1.3-1.4-2.3-1.6c-4.6-1.2-9.3,1.5-10.4,6.1
		c-0.2,0.9-0.3,1.8-0.3,2.7c0.1,3,1.7,5.1,4.3,5.8c1.5,0.4,3.1,0.3,4.5-0.3c0.9-0.4,1.7-0.9,2.4-1.5c0,0.2,0,0.3,0,0.4
		c-0.1,1,0.1,1.2,1.1,1.2c0.8,0,1.7,0,2.5,0s1.3-0.3,1.5-1.3c0-0.2,0.1-0.4,0.1-0.7c0.6-3.8,1.2-7.7,1.8-11.5
		C91.4,24.2,91.2,23.9,90.5,23.9z M85.5,31.2c-0.3,2-2.1,3.5-4.2,3.5c-1.6,0.2-3-1-3.2-2.6c0-0.4,0-0.7,0.1-1.1
		c0.3-2,2.1-3.5,4.2-3.5c1.7-0.1,3.1,1.2,3.2,2.8C85.6,30.6,85.6,30.9,85.5,31.2L85.5,31.2z"/>
</g>
</svg>
