<svg id="Calque_1" data-name="Calque 1" xmlns="http://www.w3.org/2000/svg" width="100" height="100" viewBox="0 0 100 100">
  <title>fi_tickets-restaurants</title>
  <g>
    <path d="M95.94,21.23H4.06A4.06,4.06,0,0,0,0,25.29V74.71a4.06,4.06,0,0,0,4.06,4.06H95.94A4.06,4.06,0,0,0,100,74.71V25.29A4.06,4.06,0,0,0,95.94,21.23ZM86,70.64H14a10.67,10.67,0,0,0-5.9-5.84V35.28a10.66,10.66,0,0,0,6-5.93h72a10.68,10.68,0,0,0,5.79,5.79V64.89A10.68,10.68,0,0,0,86,70.64Z"/>
    <path d="M81.2,37.22c-.17-.09-.34-.17-.5-.27l-.25-.16H18.77a4.27,4.27,0,0,0-3.46,1.88,5.14,5.14,0,0,0-.56,4.46c1,2.79,3.34,2.92,5.18,2.92h.3c7.59,0,15.18,0,22.76,0h7.59c2.58,0,3.19-.29,3.59-2.42H78.08a11.67,11.67,0,0,0,2.6-.21,3.34,3.34,0,0,0,2.4-2.07,3.19,3.19,0,0,0-.41-3A3.85,3.85,0,0,0,81.2,37.22Z"/>
    <path d="M80.26,52.4a20.25,20.25,0,0,0-2.36-.12H72.27c-11.28,0-22.56,0-33.84,0-1.33,0-1.39-.1-1.52-.73a3.19,3.19,0,0,0-1.31-1.66A8.47,8.47,0,0,0,30,48.24c-2.62,0-5.23,0-7.85,0H17.47c-.8,0-2.92,0-3,2.28a2.3,2.3,0,0,0,.6,1.72,3.24,3.24,0,0,0,2.41.7H29.21a7.5,7.5,0,0,1,.83,0l.06.3a2.24,2.24,0,0,1-.93.08H17.5c-.87,0-2.9,0-3,2.23a2.3,2.3,0,0,0,.58,1.75,3.16,3.16,0,0,0,2.39.72H29.16A8.51,8.51,0,0,1,30,58l0,.3a3.09,3.09,0,0,1-.9.08H27.24c-3.25,0-6.5,0-9.74,0-.09,0-2.17.06-2.69,1.29a2.46,2.46,0,0,0,.33,2.18A2.5,2.5,0,0,0,17.25,63c2.59,0,4.9,0,7.21,0s4.63,0,7.22,0l.31,0c.12,0,.32-.06.54-.1a4.13,4.13,0,0,0,1.69-.49,8.9,8.9,0,0,0,2.66-2.81c.4-.63.44-.63,1-.65H77.41c.92,0,1.84,0,2.76-.09a3.27,3.27,0,0,0,.08-6.52Z"/>
  </g>
</svg>
