<svg id="Calque_1" data-name="Calque 1" xmlns="http://www.w3.org/2000/svg" width="100" height="100" viewBox="0 0 100 100">
  <title>fi_visa</title>
  <path d="M95.44,83.61H4.56A4.55,4.55,0,0,1,0,79.06V20.94a4.55,4.55,0,0,1,4.56-4.56H95.44A4.55,4.55,0,0,1,100,20.94V79.06A4.55,4.55,0,0,1,95.44,83.61ZM9.11,74.5H90.89v-49H9.11Z"/>
  <g>
    <path d="M83.77,58.34,79.89,40.7a1.36,1.36,0,0,0-1.37-1.09H75.13a8.88,8.88,0,0,0-1,.06,3.3,3.3,0,0,0-2.75,2l-7.09,16-.82,2.15h6.63l1-.13,1-2.58h4.6l.12.52.49,2.17h5.41l1.21-.27Zm-8.41-7.13h-1L75,49.52Z"/>
    <path d="M39.56,39.61H32L28.3,49l-1.44-6.9a2.93,2.93,0,0,0-1.94-2.3,4.56,4.56,0,0,0-1.49-.24H15.52l-.93.27-.16,1,.09,1,.81.35a19.42,19.42,0,0,1,2.79.9c.42.17.82.36,1.23.56l.36.13L24,59l.43.74.74.09h5l.91-.13,8-18.58Z"/>
    <path d="M63.07,49.34a7.44,7.44,0,0,0-2-1.63c-.49-.27-1-.52-1.48-.77l-.77-.39a2.31,2.31,0,0,1-1.13-.93,2.71,2.71,0,0,1,1.3-.3,8.15,8.15,0,0,1,3.23.52l1.95.82.89-5.16,0-1.13-.9-.32a14.35,14.35,0,0,0-7-.55,10.08,10.08,0,0,0-3.72,1.36,6.44,6.44,0,0,0-3.24,5.05,4.94,4.94,0,0,0,.57,2.83A6.81,6.81,0,0,0,53,51.08a18.23,18.23,0,0,0,2.48,1.35,5.69,5.69,0,0,1,1.45.88l0,.36A2,2,0,0,1,56,54a6.93,6.93,0,0,1-1.69,0,7.73,7.73,0,0,1-2.41-.49c-.34-.12-.68-.27-1-.4l-1.8-.73-.86,5.06a1.36,1.36,0,0,0,1,1.71,16.42,16.42,0,0,0,4.83.88l.75,0A15.27,15.27,0,0,0,56.61,60a11.88,11.88,0,0,0,3.44-.92A7.83,7.83,0,0,0,62.87,57a6.49,6.49,0,0,0,1.48-3.68A5.27,5.27,0,0,0,63.07,49.34Z"/>
    <polygon points="41.95 39.47 38.73 58.39 38.73 59.72 44.61 59.72 45.72 59.62 49.15 39.47 41.95 39.47"/>
  </g>
</svg>
