<svg id="Calque_1" data-name="Calque 1" xmlns="http://www.w3.org/2000/svg" width="100" height="100" viewBox="0 0 100 100">
  <title>fi_virements</title>
  <g>
    <path d="M23.93,47.35V42.57l.72.33a2.16,2.16,0,0,0,2.85-.49l.24-.34a2.17,2.17,0,0,0,.33-1.68A2.45,2.45,0,0,0,27,39a11,11,0,0,0-3.1-1.19,2.23,2.23,0,0,0-2.39-2,2.15,2.15,0,0,0-2.17,2.06,6.67,6.67,0,0,0-4.83,6.73,6.42,6.42,0,0,0,4.83,6.48v5.13a7.39,7.39,0,0,1-1.8-.81,2.14,2.14,0,0,0-2.8.42l-.17.2A2.14,2.14,0,0,0,14,57.62a2.39,2.39,0,0,0,1,1.67,12.32,12.32,0,0,0,4.37,1.64,2.23,2.23,0,0,0,2.38,1.9,2.15,2.15,0,0,0,2.17-2.06A6.84,6.84,0,0,0,29,53.82C29,51.44,28.06,48.53,23.93,47.35ZM19.35,45.7a2.84,2.84,0,0,1-.2-1.18,3,3,0,0,1,.2-1.13Zm4.58,9.85V52.38a1.94,1.94,0,0,1,.43,1.52A2.89,2.89,0,0,1,23.93,55.56Z"/>
    <path d="M96.21,6.15h-59a3.78,3.78,0,0,0-3.79,3.79V20h-22A11.37,11.37,0,0,0,0,31.38V69.24A11.37,11.37,0,0,0,11.36,80.59h26.5v5.69H24.76a3.79,3.79,0,0,0,0,7.57H58.51a3.79,3.79,0,0,0,0-7.57H45.42V80.59h26.5A11.37,11.37,0,0,0,83.27,69.24V51.47H96.21A3.78,3.78,0,0,0,100,47.68V9.93A3.78,3.78,0,0,0,96.21,6.15Zm-3.79,7.57V19.9H41V13.72ZM75.7,69.24A3.79,3.79,0,0,1,71.92,73H11.36a3.79,3.79,0,0,1-3.79-3.79V31.38a3.79,3.79,0,0,1,3.79-3.79h22V47.68a3.78,3.78,0,0,0,3.79,3.79H75.7ZM41,43.9V27.47H92.43V43.9Z"/>
  </g>
</svg>
