<svg id="Calque_1" data-name="Calque 1" xmlns="http://www.w3.org/2000/svg" width="100" height="100" viewBox="0 0 100 100">
  <title>fi_website</title>
  <g>
    <path d="M87.93,6H15.2C7.68,6,0,11.21,0,18.72V64.18C0,71.7,7.68,79,15.2,79H45v5H31.3a4.5,4.5,0,1,0,0,9H71.84a4.5,4.5,0,1,0,0-9H55V79H87.93C95.45,79,100,71.7,100,64.18V18.72C100,11.21,95.45,6,87.93,6ZM91,65.45A4.55,4.55,0,0,1,86.45,70H13.55A4.55,4.55,0,0,1,9,65.45V19.55A4.55,4.55,0,0,1,13.55,15H86.45A4.55,4.55,0,0,1,91,19.55Z"/>
    <path d="M59,42.06l5.71-2.58A4.54,4.54,0,0,0,64,31L40.61,24.54A4.54,4.54,0,0,0,35,30.12l6.43,23.42a4.55,4.55,0,0,0,4,3.33h.36A4.54,4.54,0,0,0,50,54.2l2.58-5.71,8,8A4.54,4.54,0,1,0,66.94,50Z"/>
  </g>
</svg>
