<svg id="Calque_1" data-name="Calque 1" xmlns="http://www.w3.org/2000/svg" width="100" height="100" viewBox="0 0 100 100">
  <title>fi_mail</title>
  <path d="M100,23.64A13.64,13.64,0,0,0,86.36,10H13.64A13.64,13.64,0,0,0,0,23.64V78.36A13.64,13.64,0,0,0,13.64,92H86.36A13.64,13.64,0,0,0,100,78.36ZM14,19H86.74a4.6,4.6,0,0,1,4,2.63L50.37,50,10,21.61A4.58,4.58,0,0,1,14,19ZM86.74,83H14a5.13,5.13,0,0,1-5-4.73V32.46L47.54,59.27a4.91,4.91,0,0,0,2.72.82,4.3,4.3,0,0,0,2.52-.82L91,32.46V78.27A4.48,4.48,0,0,1,86.74,83Z"/>
</svg>
