<svg id="Calque_1" data-name="Calque 1" xmlns="http://www.w3.org/2000/svg" width="100" height="100" viewBox="0 0 100 100">
  <title>fi_phone</title>
  <g>
    <path d="M69,57.4c-5.49-3-10.68-2.15-15.43,2.6-1.77,1.73-6.69-2.25-9.05-4.62-1.78-1.78-4.21-4.21-5.34-6.38-.83-1.6-.52-1.91,0-2.47C41,44.72,46.54,39.18,42.27,31c-2.17-4.14-6.54-8.62-14.09-16.17A11.55,11.55,0,0,0,19.53,11C13.13,11.1,8,16.39,4.24,20.26L3,21.58C-7.43,32,9.32,55.28,14.76,62.25A127.38,127.38,0,0,0,37.57,85c8.71,6.08,22.65,14.54,32.56,14.54A10.72,10.72,0,0,0,78,96.67c.4-.4.87-.84,1.37-1.31,3.55-3.34,8.92-8.39,9-15a12.89,12.89,0,0,0-4.14-9.45C77.26,63.89,73,59.64,69,57.4Zm3,30a7.57,7.57,0,0,0-1.2,1.26c-3.11,1.06-16-5-26.79-12.51A117.69,117.69,0,0,1,23.43,55.66l-.06-.08C13.93,43.49,8.92,31,10.65,29.28l1.41-1.44c1.85-1.91,5.71-5.89,7.55-5.91.27,0,.69.4.86.56C26,28,32.91,34.94,33,36.91c0,0-.13.57-1.49,1.93C27.33,43,26.6,48.5,29.46,54c1.9,3.67,5,6.79,7.31,9.08C50.27,76.59,58.9,70,61.23,67.71a6.05,6.05,0,0,1,1.46-1.18c1.93.12,8,6.21,13.91,12.11a2.54,2.54,0,0,1,.94,1.57C77.51,82.19,73.75,85.72,71.95,87.42Z"/>
    <path d="M54.18,26.47a19.21,19.21,0,0,1,13.68,5.67,19.44,19.44,0,0,1,5.67,13.42A5.53,5.53,0,0,0,79,51h.1a5.5,5.5,0,0,0,5.35-5.64A30.29,30.29,0,0,0,54.18,15.6a5.44,5.44,0,1,0,0,10.87Z"/>
    <path d="M87.93,11.69A39.66,39.66,0,0,0,59.7,0a5.45,5.45,0,0,0,0,10.9,28.84,28.84,0,0,1,20.53,8.5,30.15,30.15,0,0,1,8.5,20.69c0,3,2.47,5.92,5.45,5.92h.07c3,0,5.42-3,5.38-6.06A41,41,0,0,0,87.93,11.69Z"/>
  </g>
</svg>
